# xmcd CD database file
#
# Track frame offsets:
#	150
#	36227
#	81817
#	109134
#	152187
#	179293
#	212587
#	240867
#	292935
#
# Disc length: 4115 seconds
#
# Revision: 1
# Processed by: cddbd v1.5.2PL0 Copyright (c) Steve Scherf et al.
# Submitted via: CDex 1.51
#
DISCID=6e101109
DTITLE=Matthew Schoening - The Art Of Live Looping
DYEAR=2008
DGENRE=New Age
TTITLE0=Dark Seduction
TTITLE1=Leap Of Faith
TTITLE2=Between The Lines
TTITLE3=A New Journey
TTITLE4=Kites Over The Playa
TTITLE5=Harmonic Motion
TTITLE6=Emotional Clockwork
TTITLE7=Light At The End Of The Tunnel
TTITLE8=(Bonus) All White
EXTD=YEAR: 2008
EXTT0=
EXTT1=
EXTT2=
EXTT3=
EXTT4=
EXTT5=
EXTT6=
EXTT7=
EXTT8=
PLAYORDER=
